<?xml version="1.0" encoding="UTF-8" standalone="no"?>
<svg
   xmlns:dc="http://purl.org/dc/elements/1.1/"
   xmlns:cc="http://creativecommons.org/ns#"
   xmlns:rdf="http://www.w3.org/1999/02/22-rdf-syntax-ns#"
   xmlns:svg="http://www.w3.org/2000/svg"
   xmlns="http://www.w3.org/2000/svg"
   id="svg5453"
   version="1.1"
   viewBox="0 0 70 70"
   height="70mm"
   width="70mm">
  <defs
     id="defs5447" />
  <metadata
     id="metadata5450">
    <rdf:RDF>
      <cc:Work
         rdf:about="">
        <dc:format>image/svg+xml</dc:format>
        <dc:type
           rdf:resource="http://purl.org/dc/dcmitype/StillImage" />
        <dc:title></dc:title>
      </cc:Work>
    </rdf:RDF>
  </metadata>
  <g
     transform="translate(0,-227)"
     id="layer1">
    <g
       id="Logo_Mark_3_"
       transform="matrix(0.26458333,0,0,0.26458333,-18.835501,37.538057)">
      <path
         id="path29"
         d="m 293.55714,929.52 h -180.44 c -6.34,0 -11.47,-5.14 -11.47,-11.47 v 0 c 0,-6.34 5.14,-11.47 11.47,-11.47 h 180.44 c 6.34,0 11.47,5.14 11.47,11.47 v 0 c 0.01,6.33 -5.13,11.47 -11.47,11.47 z" />
      <path
         id="path31"
         d="m 293.55714,883.63 h -18.59 c -6.34,0 -11.47,-5.14 -11.47,-11.47 v 0 c 0,-6.34 5.14,-11.47 11.47,-11.47 h 18.59 c 6.34,0 11.47,5.14 11.47,11.47 v 0 c 0.01,6.33 -5.13,11.47 -11.47,11.47 z" />
      <path
         id="path33"
         d="m 233.25714,883.63 h -120.14 c -6.34,0 -11.47,-5.14 -11.47,-11.47 v 0 c 0,-6.34 5.14,-11.47 11.47,-11.47 h 120.14 c 6.34,0 11.47,5.14 11.47,11.47 v 0 c 0,6.33 -5.13,11.47 -11.47,11.47 z" />
      <path
         id="path35"
         d="m 293.55714,837.74 h -94.49 c -6.34,0 -11.47,-5.14 -11.47,-11.47 v 0 c 0,-6.34 5.14,-11.47 11.47,-11.47 h 94.49 c 6.34,0 11.47,5.14 11.47,11.47 v 0 c 0.01,6.33 -5.13,11.47 -11.47,11.47 z" />
      <path
         id="path37"
         d="m 157.35714,837.74 h -44.25 c -6.34,0 -11.47,-5.14 -11.47,-11.47 v 0 c 0,-6.34 5.14,-11.47 11.47,-11.47 h 44.25 c 6.34,0 11.47,5.14 11.47,11.47 v 0 c 0,6.33 -5.13,11.47 -11.47,11.47 z" />
      <path
         id="path39"
         d="m 293.55714,791.85 h -180.44 c -6.34,0 -11.47,-5.14 -11.47,-11.47 v 0 c 0,-6.34 5.14,-11.47 11.47,-11.47 h 180.44 c 6.34,0 11.47,5.14 11.47,11.47 v 0 c 0.01,6.33 -5.13,11.47 -11.47,11.47 z" />
    </g>
  </g>
</svg>
